<?xml version="1.0" encoding="UTF-8"?>
<svg id="Layer_1" xmlns="http://www.w3.org/2000/svg" version="1.1" xmlns:xlink="http://www.w3.org/1999/xlink" viewBox="0 0 1936.3 381">
  <!-- Generator: Adobe Illustrator 30.1.0, SVG Export Plug-In . SVG Version: 2.1.1 Build 136)  -->
  <defs>
    <style>
      .st0 {
        fill: #fff;
      }

      .st1 {
        fill: url(#Gradiente_sem_nome);
      }

      .st2 {
        fill: #0cf;
      }
    </style>
    <linearGradient id="Gradiente_sem_nome" data-name="Gradiente sem nome" x1="151.99" y1="92.51" x2="340.01" y2="92.51" gradientTransform="translate(0 382.55) scale(1 -1)" gradientUnits="userSpaceOnUse">
      <stop offset="0" stop-color="#2c006a"/>
      <stop offset="1" stop-color="#39f"/>
    </linearGradient>
  </defs>
  <path class="st1" d="M310,364c-5.9,0-11.8-1.7-17-5.3l-128-87.9c-13.7-9.4-17.1-28.1-7.7-41.7,9.4-13.7,28.1-17.1,41.7-7.7l128,87.9c13.7,9.4,17.1,28.1,7.7,41.7-5.8,8.5-15.2,13-24.8,13h.1Z"/>
  <path class="st2" d="M54,364c-9.6,0-18.9-4.5-24.8-13-9.4-13.7-5.9-32.3,7.7-41.7l128-87.9c13.7-9.4,32.3-5.9,41.7,7.7,9.4,13.7,5.9,32.3-7.7,41.7l-128,87.9c-5.2,3.6-11.1,5.3-17,5.3h.1Z"/>
  <g>
    <path class="st2" d="M334,284.7c-5.8,0-11.7-1.7-16.9-5.3l-152-104.2c-13.7-9.4-17.1-28-7.8-41.7,9.4-13.7,28-17.2,41.7-7.8l152,104.2c13.7,9.4,17.1,28,7.8,41.7-5.8,8.5-15.2,13-24.8,13v.1Z"/>
    <path class="st2" d="M30,284.7c-9.6,0-19-4.6-24.8-13-9.4-13.7-5.9-32.3,7.8-41.7l152-104.2c13.7-9.4,32.3-5.9,41.7,7.8,9.4,13.7,5.9,32.3-7.8,41.7l-152,104.2c-5.2,3.6-11.1,5.3-16.9,5.3v-.1Z"/>
  </g>
  <path class="st2" d="M308.9,171.9c-14.9,0-27.8-11.1-29.7-26.2-6.2-48.8-48.1-85.7-97.5-85.7s-91,36.7-97.4,85.3c-2.2,16.4-17.2,28-33.7,25.8-16.4-2.2-28-17.2-25.8-33.7,5-37.8,23.5-72.5,52.2-97.8C105.9,14.1,143.1,0,181.7,0,261.2,0,328.6,59.4,338.7,138.1c2.1,16.4-9.5,31.5-26,33.6-1.3.2-2.6.2-3.8.2h0Z"/>
  <g>
    <path class="st0" d="M490.4,351.4c.9,4.6,4.3,6.8,10,6.8s8.3-2,8.3-5.1-1.7-4-5.2-4.6l-7.8-1.3c-7-1.2-10.4-4.4-10.4-9.8s5.8-10.8,14.4-10.8,7.3.9,10.3,2.7c3,1.8,4.7,4.7,5,8.7h-6.4c-.5-3.9-3.9-6-8.9-6s-7.6,2-7.6,4.8,1.9,4,5.9,4.7l6.7,1.1c7,1.2,10.5,4.5,10.5,9.9s-6.1,11.2-15.1,11.2-15.4-4-16.3-12.5h6.5l.1.2Z"/>
    <path class="st0" d="M554.5,332.1c3.6,3.5,5.4,7.9,5.4,13.1s-1.8,9.8-5.4,13.3c-3.5,3.5-8,5.3-13.2,5.3s-9.8-1.8-13.3-5.3-5.3-7.9-5.3-13.3,1.8-9.7,5.3-13.2,8-5.2,13.3-5.2,9.7,1.8,13.2,5.3h0ZM549.6,354c2.2-2.4,3.3-5.3,3.3-8.8s-1.1-6.3-3.3-8.6c-2.2-2.3-4.9-3.5-8.3-3.5s-6.2,1.2-8.5,3.5c-2.2,2.3-3.3,5.2-3.3,8.6s1,6.4,3.3,8.8c2.2,2.3,5.1,3.5,8.5,3.5s6.1-1.2,8.3-3.5Z"/>
    <path class="st0" d="M593.7,327.7v5.8h-13.9v29.2h-6.9v-29.2h-10v-5.8h10v-7.7c0-4.3,1.2-7.7,3.7-10.2,2.5-2.6,5.7-3.9,9.7-3.9s5.2.4,7.6,1l-1,6c-2.2-.5-4-.7-5.4-.7-4.7,0-7.7,3.1-7.7,7.7v7.7h13.9v.1Z"/>
    <path class="st0" d="M621.4,362.5c-3,.9-5.7,1.3-8.2,1.3-8.2,0-12.9-5.1-12.9-14.2v-16.2h-8.6v-5.8h8.6v-12.9h6.9v12.9h13.1v5.8h-13.1v16.2c0,5.2,2.4,7.8,7.3,7.8s3.8-.3,5.9-.9l1,5.9v.1Z"/>
    <path class="st0" d="M666.1,362.7h-6.2l-8.1-23.9-8.1,23.9h-6.1l-13.1-35h7.4l8.7,24.1,8.2-24.1h5.9l8.2,24.1,8.8-24.1h7.4l-13.1,35h.1Z"/>
    <path class="st0" d="M719.5,362.7h-6.9v-3.1c-3.2,2.6-7.1,4-11.7,4s-9.2-1.8-12.7-5.3c-3.5-3.6-5.2-7.9-5.2-13s1.7-9.5,5.2-13c3.5-3.6,7.7-5.4,12.7-5.4s8.5,1.4,11.7,4v-3.1h6.9v35-.1ZM712.6,352v-13.6c-2.5-3.8-6.1-5.6-10.7-5.6s-6.1,1.2-8.5,3.7c-2.3,2.5-3.4,5.4-3.4,8.8s1.1,6.2,3.4,8.7,5.1,3.7,8.5,3.7,8.2-1.9,10.7-5.6v-.1Z"/>
    <path class="st0" d="M737.8,332.9c3.5-4,7.9-6,13.2-6v6.5c-5.6.2-10,2.5-13.2,6.9v22.4h-6.9v-35h6.9v5.2Z"/>
    <path class="st0" d="M791.1,347.9h-28.5c1,5.8,5.2,9.9,11.8,9.9s7-1.4,8.5-4.3h7.4c-2,6.2-8.3,10.2-16.2,10.2s-9.8-1.7-13.3-5.2c-3.4-3.5-5.1-7.9-5.1-13.1s1.7-9.7,5.1-13.2c3.5-3.5,7.9-5.2,13.3-5.2s9,1.7,12.2,5.1,4.8,7.7,4.9,13c0,1.4,0,2.3-.1,3v-.2ZM762.6,342.7h21.7c-.7-6.1-4.6-10-10.4-10s-10.3,4-11.2,10h-.1Z"/>
    <path class="st0" d="M855.6,362.7h-6.9v-3.1c-3.1,2.6-7,4-11.7,4s-9.2-1.8-12.7-5.3c-3.5-3.6-5.2-7.9-5.2-13s1.7-9.5,5.2-13c3.5-3.6,7.7-5.4,12.7-5.4s8.6,1.4,11.7,4v-21.3h6.9v53.2-.1ZM848.7,352v-13.6c-2.5-3.8-6.1-5.6-10.7-5.6s-6.1,1.2-8.5,3.7c-2.3,2.4-3.4,5.3-3.4,8.7s1.1,6.3,3.4,8.8,5.1,3.7,8.5,3.7,8.1-1.9,10.7-5.6v-.1Z"/>
    <path class="st0" d="M901.7,362.7h-6.9v-3.1c-3.2,2.6-7.1,4-11.7,4s-9.2-1.8-12.7-5.3c-3.5-3.6-5.2-7.9-5.2-13s1.7-9.5,5.2-13c3.5-3.6,7.7-5.4,12.7-5.4s8.5,1.4,11.7,4v-3.1h6.9v35-.1ZM894.8,352v-13.6c-2.5-3.8-6.1-5.6-10.7-5.6s-6.1,1.2-8.5,3.7-3.4,5.4-3.4,8.8,1.1,6.2,3.4,8.7,5.1,3.7,8.5,3.7,8.2-1.9,10.7-5.6v-.1Z"/>
    <path class="st0" d="M952.3,311.7c7.9,0,14.3,2.4,19.5,7.2s7.8,10.8,7.8,18.1-2.6,13.6-7.8,18.4c-5.2,4.9-11.6,7.3-19.5,7.3h-19.9v-51h19.9ZM952.3,352.8c4.6,0,8.4-1.5,11.5-4.6,3.2-3.1,4.7-6.7,4.7-11.2s-1.6-8-4.7-10.9c-3.1-3-7-4.5-11.5-4.5h-9v31.1h9v.1Z"/>
    <path class="st0" d="M992.9,308c3.5,0,6.2,2.6,6.2,6.2s-2.7,6-6.2,6-6.3-2.6-6.3-6,2.8-6.2,6.3-6.2ZM998.2,362.7h-10.4v-35.9h10.4v35.9Z"/>
    <path class="st0" d="M1044.7,362.3c0,5.5-1.7,9.9-5.2,13.1-3.4,3.2-7.9,4.9-13.4,4.9s-9.5-1.4-13-4.3c-3.5-2.8-5.5-6.6-5.8-11.2h10.5c.5,3.8,3.5,6.2,8.4,6.2s8.2-3.2,8.2-8.6v-3.9c-2.9,1.9-6.4,2.8-10.2,2.8s-9.1-1.7-12.7-5.2-5.2-7.6-5.2-12.3,1.7-9.7,5.2-13.2,7.7-5.2,12.8-5.2,7.3,1,10.2,2.8v-1.4h10.3v35.5h-.1ZM1034.3,348.2v-9.7c-2-2.9-4.9-4.3-8.5-4.3-5.5,0-9.3,3.9-9.3,9.5s.9,4.2,2.7,6.1c1.8,1.8,4,2.7,6.6,2.7s6.5-1.4,8.5-4.4v.1Z"/>
    <path class="st0" d="M1059.4,308c3.5,0,6.2,2.6,6.2,6.2s-2.7,6-6.2,6-6.3-2.6-6.3-6,2.8-6.2,6.3-6.2ZM1064.6,362.7h-10.4v-35.9h10.4v35.9Z"/>
    <path class="st0" d="M1110.4,362.7h-12.1l-7.9-10.9-8,10.9h-12.1l13.1-18.1-13.1-17.9h12.5l7.4,10.3,7.7-10.3h12.4l-13.1,18,13.1,18h.1Z"/>
  </g>
  <g>
    <path class="st0" d="M550.3,108l-66.5,158h41.4l10.4-27h66.3l10.6,27h41.4l-66.3-158h-37.3ZM548.5,205.7l20.2-52.2,20.2,52.2h-40.5.1Z"/>
    <path class="st0" d="M1371.1,149.2c-15.2,0-28.3,5.1-39.5,15.4-8.7-10.3-20.2-15.4-34.5-15.4s-19.8,3.3-27.3,10v-10.3h-37.5v117h37.5v-72.6c4.8-6.5,10.3-9.8,16.5-9.8,12.6,0,20,7.9,20,23.8v58.6h37.2v-64.7c0-1.9-.2-4.7-.5-8.4,5.1-6.3,10.8-9.3,17-9.3,12.6,0,20,7.9,20,23.8v58.6h37.2v-64.7c0-15.9-4.4-28.5-12.9-37.8-8.5-9.6-19.8-14.2-33.3-14.2h.1Z"/>
    <path class="st0" d="M1494.2,149c-17.7,0-32.1,5.5-43.1,16.4-10.8,10.8-16.3,24.9-16.3,42s5.5,31.4,16.7,42.2,25.9,16.4,44,16.4c27.5,0,48.8-14.5,54.3-37.6h-36.9c-3.4,5.3-8.9,8.1-17,8.1-13.1,0-21.5-6-25-18h79.1c.5-3,.7-7.4.7-13.4,0-16.6-5.3-30-16-40.4-10.8-10.4-24.3-15.7-40.6-15.7h.1ZM1470.8,196.5c3-12.5,10.8-18.7,23.2-18.7s19.9,6.2,22,18.7h-45.2Z"/>
    <path class="st0" d="M822.7,149c-17.7,0-32.1,5.5-43.1,16.4-10.8,10.8-16.3,24.9-16.3,42s5.5,31.4,16.7,42.2,25.9,16.4,44,16.4c27.5,0,48.8-14.5,54.3-37.6h-36.9c-3.4,5.3-8.9,8.1-17,8.1-13.1,0-21.5-6-25-18h79.1c.5-3,.7-7.4.7-13.4,0-16.6-5.3-30-16-40.4-10.8-10.4-24.3-15.7-40.6-15.7h.1ZM799.3,196.5c3-12.5,10.8-18.7,23.2-18.7s19.9,6.2,22,18.7h-45.2Z"/>
    <path class="st0" d="M722,231.9c-11.7,0-17.4-5.5-17.4-16.7v-32.8h37.8v-32.9h-37.8v-35.6h-37.1v35.6h-21.7v32.9h21.7v33.9c0,14.9,3.9,27,12.1,36.1,8,8.9,19,13.5,32.5,13.5s22-1.8,33.6-5.5l-4.1-31.3c-9.4,1.8-16,2.7-19.7,2.7l.1.1Z"/>
    <path class="st0" d="M1778,231.9c-11.7,0-17.4-5.5-17.4-16.7v-32.8h37.8v-32.9h-37.8v-35.6h-37.1v35.6h-21.7v32.9h21.7v33.9c0,14.9,3.9,27,12.1,36.1,8,8.9,19,13.5,32.5,13.5s22-1.8,33.6-5.5l-4.1-31.3c-9.4,1.8-16,2.7-19.7,2.7l.1.1Z"/>
    <path class="st0" d="M1116.6,156.7c-9-5.6-19.2-8.4-30.5-8.4s-28.5,5.6-39.3,17c-10.9,11.2-16.4,25.1-16.4,41.6s5.6,30.7,16.4,42.1c10.8,11.4,24.1,17,39.3,17s21.5-2.8,30.5-8.4v8.4h37.7V93h-37.7v63.7ZM1116.6,224.9c-6,6.7-13.6,10.2-23.1,10.2-15,0-26.4-12.3-26.4-28.1s2.5-14.4,7.6-19.8c4.9-5.3,11.1-8.1,18.7-8.1s16.9,3.5,23.1,10.5v35.3h.1Z"/>
    <rect class="st0" x="1175" y="149" width="37" height="117"/>
    <path class="st0" d="M1193.3,93c-12,0-21.5,9.2-21.5,21.1s9.5,20.9,21.5,20.9,21.5-9,21.5-20.9-9.7-21.1-21.5-21.1Z"/>
    <path class="st0" d="M1919.9,165.5c-10.9-11-24.9-16.5-41.8-16.5s-31.1,5.5-42.3,16.5c-10.9,10.8-16.5,24.7-16.5,41.4s5.6,31.1,16.5,42.4c11.1,11.2,25.1,16.7,42.3,16.7s30.9-5.5,41.8-16.7,16.5-25.4,16.5-42.4-5.6-30.7-16.5-41.4ZM1878.1,234c-14.5,0-24.5-11.4-24.5-26.8s10-26.1,24.5-26.1,24.2,11.4,24.2,26.1-10,26.8-24.2,26.8Z"/>
    <path class="st0" d="M1636.5,149c-11.1,0-21.3,3.7-30.7,11v-11h-37.4v117h37.4v-71.6c6.7-7.5,13.4-11.2,20.6-11.2,12.7,0,20.6,8.2,20.6,23.9v59h37.4v-64.8c0-16.1-4.4-28.8-13.2-38.1-8.8-9.4-20.3-14-34.7-14v-.2Z"/>
    <path class="st0" d="M964.9,149c-11.1,0-21.3,3.7-30.7,11v-11h-37.4v117h37.4v-71.6c6.7-7.5,13.4-11.2,20.6-11.2,12.7,0,20.6,8.2,20.6,23.9v59h37.4v-64.8c0-16.1-4.4-28.8-13.2-38.1-8.8-9.4-20.3-14-34.7-14v-.2Z"/>
  </g>
</svg>